<svg width="550" height="550" viewBox="0 0 550 550" fill="none" xmlns="http://www.w3.org/2000/svg">
<path d="M294.644 91.5683C346.781 146.375 333.991 225.099 321.079 257.61C305.375 298.664 333.118 319.58 336.783 322.195C340.447 324.81 368.19 368.216 372.378 403.255C376.566 438.294 359.553 468.103 322.911 475.163C286.268 482.223 246.485 443.785 242.297 392.011C238.947 350.592 225.198 316.704 218.742 304.937C182.099 248.719 182.623 220.478 178.173 201.129C173.724 181.779 181.838 133.667 204.085 106.211C226.332 78.7556 249.103 71.4341 263.236 73.2645C274.543 74.7288 288.886 86.0771 294.644 91.5683Z" fill="#0B0B0B"/>
</svg>
