<svg width="550" height="550" viewBox="0 0 550 550" fill="none" xmlns="http://www.w3.org/2000/svg">
<path d="M255.356 92.5683C203.219 147.375 216.009 226.099 228.921 258.61C244.625 299.664 216.882 320.58 213.217 323.195C209.553 325.81 181.81 369.216 177.622 404.255C173.434 439.294 190.447 469.103 227.089 476.163C263.732 483.223 303.515 444.785 307.703 393.011C311.053 351.592 324.802 317.704 331.258 305.937C367.901 249.719 367.377 221.478 371.827 202.129C376.276 182.779 368.162 134.667 345.915 107.211C323.668 79.7556 300.897 72.4341 286.764 74.2645C275.457 75.7288 261.114 87.0771 255.356 92.5683Z" fill="#0B0B0B"/>
</svg>
