<svg preserveAspectRatio="xMidYMid meet" width="872" height="125" overflow="visible" style="display: block;" viewBox="0 0 872 125" fill="none" xmlns="http://www.w3.org/2000/svg">
<path id="Vector" d="M557.418 0.0377559C560.497 0.0377559 565.623 1.73011 568.439 5.34933C570.935 8.76572 574.81 13.6019 559.83 17.9691C555.243 19.6297 548.693 20.2065 546.711 22.4693C544.793 24.7258 546.993 26.6273 549.777 27.7682C559.009 30.4177 567.592 28.6936 576.587 28.2626C582.508 27.5781 586.704 26.1012 593.343 29.3782C598.982 32.6171 596.801 40.7936 594.505 42.5113C590.328 45.427 586.556 46.9165 577.825 47.17C562.364 47.5947 551.086 45.9721 539.628 50.5674C529.986 54.3261 525.258 64.0112 528.138 72.6821C532.757 83.6792 548.468 82.7157 562.852 76.8527C568.677 74.4758 579.833 66.1979 585.857 60.5631C593.414 54.0852 611.929 29.0296 643.819 28.4718C660.3 28.4718 681.207 31.0515 695.802 33.5932C715.715 36.9779 726.884 40.388 749.748 40.3182C789.016 39.2914 804.073 33.3777 815.383 35.9448C826.103 38.6766 827.777 46.9545 827.174 53.2042C826.571 59.4538 821.657 65.8049 824.32 71.5095C826.206 75.5534 831.697 80.4656 840.448 84.3194C851.245 89.0732 862.933 92.6353 865.595 93.3262C874.186 95.8552 874.275 105.673 865.012 107.575C858.423 109.521 829.657 107.48 816.166 105.439C774.075 99.0815 778.79 87.3618 781.472 82.8045C783.948 78.7733 788.785 76.9922 790.318 72.8912C793.577 64.214 785.911 59.0482 777.437 58.5158C771.971 58.2242 763.573 59.5362 754.258 65.1774C740.228 73.9054 735.66 85.9103 730.797 90.9873C718.987 104.33 708.479 107.575 699.581 107.575C688.508 107.575 682.785 93.9664 690.882 86.3793C695.064 82.6143 711.802 64.9873 704.065 61.4948C700.383 60.3032 694.179 61.7357 688.078 75.9463C682.227 91.9254 663.206 107.575 641.4 107.575C604.153 107.575 590.546 93.1107 583.207 93.2565C573.52 93.2565 562.242 107.575 537.485 107.575C509.136 107.575 503.305 93.2565 495.228 93.2565C485.477 92.9649 477.118 107.575 460.143 107.575C447.825 107.575 445.407 100.355 437.298 100.355C432.916 100.355 425.5 107.575 414.164 107.575C404.702 107.575 400.198 100.653 389.94 100.482C378.155 100.311 375.782 107.575 343.186 107.575C326.281 107.575 315.837 103.189 305.765 100.945C294.057 98.454 283.774 97.8011 270.141 99.3667C255.514 101.034 248.259 107.575 240.323 107.575C225.452 107.531 222.687 94.8855 225.805 87.6787C227.576 83.844 238.187 70.9073 237.122 63.1618C235.588 48.1715 211.512 51.5499 205.873 52.2915C184.523 55.1311 172.43 69.0438 161.145 77.8922C150.175 87.0068 134.663 88.8767 118.734 84.7377C107.507 82.2657 84.4185 88.1161 66.2119 90.4739C63.819 90.7592 61.7725 91.6909 59.6619 93.903C52.5858 102.194 43.7391 101.148 41.0255 101.198C35.7713 101.515 32.2429 105.065 31.0304 106.561C27.4892 110.947 23.1781 116.823 19.252 121.659C16.1085 125.519 5.11908 127.826 0.891401 118.236C-2.98343 108.019 6.16477 87.7041 20.7596 79.2677C43.5467 66.9902 53.5096 78.862 69.0218 74.8371C78.3881 72.0609 82.3463 65.3169 96.4279 61.0194C109.425 56.8931 125.008 58.6552 131.571 61.1335C136.825 63.1174 144.055 61.273 146.044 53.6986C147.911 46.5616 146.544 43.8868 156.231 31.9135C166.566 20.2572 181.058 18.1402 184.337 16.5936C196.994 10.7179 200.664 6.07191 208.003 3.80276C219.685 0.703287 234.748 -5.05197 243.19 9.24744C247.226 17.1134 230.835 20.4664 226.139 21.9876C217.106 24.7131 214.367 25.2075 215.021 28.5288C215.579 31.3494 221.09 33.2319 227.89 33.3777C239.425 33.7136 249.907 32.877 254.796 32.0403C268.313 30.1261 272.56 32.8453 275.825 36.9716C284.537 49.1603 268.916 60.5884 268.37 68.4163C267.543 74.4441 277.634 82.7981 285.146 73.823C290.818 67.0536 294.198 49.9589 310.987 39.5386C331.574 26.8428 365.152 29.0993 379.394 42.917C385.494 48.9321 385.34 57.508 374.922 65.076C369.071 69.2657 357.954 75.1921 344.674 76.8654C336.655 77.8732 332.536 78.1204 331.131 82.5129C329.906 86.766 341.094 91.2219 363.593 85.6061C378.713 80.7825 394.829 68.467 405.504 46.3397C410.104 36.2807 427.483 35.6785 428.964 47.975C429.683 53.8634 419.309 71.8327 431.216 73.7279C440.14 74.7864 447.03 54.4465 450.231 48.5581C455.107 39.3168 466.552 40.5781 470.196 47.4172C475.315 57.0453 462.831 71.1609 468.508 75.3188C471.517 77.4422 477.041 77.5119 485.015 70.039C490.449 64.4929 499.334 52.114 499.552 48.2539C499.712 44.8629 497.448 42.5494 492.617 42.5494C487.671 42.467 484.893 36.6927 483.456 34.2651C476.54 21.2587 493.682 20.5868 502.24 23.1412C510.541 25.5878 518.188 21.4488 521.351 17.107C524.251 12.5054 532.296 6.30009 537.473 4.16405C540.032 3.13089 551.15 0.0314175 557.399 0.0314175L557.418 0.0377559ZM639.264 45.877C606.328 51.5118 619.454 89.5676 645.955 86.4491C674.696 81.1375 664.675 43.4748 639.264 45.877ZM321.855 58.5792C321.855 65.5197 329.912 65.1077 333.248 65.3739C347.137 66.0965 357.126 57.2101 354.958 52.0569C352.295 45.8136 342.39 45.8136 335.205 47.1891C328.963 48.3807 321.842 54.1676 321.848 58.5792H321.855Z" fill="var(--fill-0, black)"/>
</svg>
